M48
;DRILL file {KiCad 4.0.2-stable} date 06/07/2016 16:44:07
;FORMAT={-:-/ absolute / metric / decimal}
FMAT,2
METRIC,TZ
T1C0.800
T2C0.800
T3C1.000
T4C1.001
T5C1.016
T6C1.200
T7C1.600
%
G90
G05
M71
T1
X5.524Y40.195
X9.5Y44.
X9.5Y41.46
X9.5Y38.92
X9.5Y36.38
X9.5Y33.84
X9.5Y31.3
X9.5Y28.76
X9.5Y26.22
X9.5Y23.68
X9.5Y21.14
X9.5Y18.6
X9.5Y16.06
X9.5Y13.52
X9.5Y10.98
X11.75Y21.
X12.Y44.
X12.Y41.75
X13.75Y24.
X14.5Y10.75
X14.605Y33.782
X14.75Y44.
X17.12Y44.
X17.12Y41.46
X17.12Y38.92
X17.12Y36.38
X17.12Y33.84
X17.12Y31.3
X17.12Y28.76
X17.12Y26.22
X17.12Y23.68
X17.12Y21.14
X17.12Y18.6
X17.12Y16.06
X17.12Y13.52
X17.12Y10.98
X19.75Y10.75
X20.Y20.75
X21.75Y17.75
X22.Y44.
X22.Y41.46
X22.Y38.92
X22.Y36.38
X23.5Y29.75
X23.5Y24.75
X24.25Y37.5
X24.25Y17.75
X29.Y17.75
X29.62Y44.
X29.62Y41.46
X29.62Y38.92
X29.62Y36.38
X31.5Y17.75
T2
X21.Y29.75
X21.Y24.75
X28.5Y29.691
X28.5Y24.809
T3
X5.Y50.
X5.Y10.5
T4
X8.5Y6.663
X8.5Y4.25
X8.5Y1.837
X13.5Y6.663
X13.5Y4.25
X13.5Y1.837
X18.75Y6.663
X18.75Y4.25
X18.75Y1.837
X33.5Y48.5
X33.5Y38.34
X33.5Y34.5
X33.5Y24.34
X36.Y57.5
X38.54Y57.5
T5
X1.5Y49.5
X1.5Y46.96
X1.5Y44.42
X1.5Y41.88
X1.5Y39.34
X1.5Y36.8
X1.5Y34.26
X1.5Y31.72
X1.5Y29.18
X1.5Y26.64
X1.5Y24.1
X1.5Y21.56
X1.5Y19.02
X1.5Y16.48
X1.5Y13.94
X1.5Y11.4
X1.5Y8.86
X1.5Y6.32
X1.5Y3.78
X1.5Y1.24
X24.5Y3.
X27.04Y3.
X29.58Y3.
X32.12Y3.
X39.5Y49.5
X39.5Y46.96
X39.5Y44.42
X39.5Y41.88
X39.5Y39.34
X39.5Y36.8
X39.5Y34.26
X39.5Y31.72
X39.5Y29.18
X39.5Y26.64
X39.5Y24.1
X39.5Y21.56
X39.5Y19.02
X39.5Y16.48
X39.5Y13.94
X39.5Y11.4
X39.5Y8.86
X39.5Y6.32
X39.5Y3.78
X39.5Y1.24
T6
X27.452Y12.536
X27.452Y7.964
X33.548Y12.536
X33.548Y7.964
T7
X8.055Y54.
X12.5Y49.555
X16.945Y54.
T4
X23.301Y55.799G85X23.301Y53.8
G05
X28.999Y57.799G85X27.001Y57.799
G05
X29.25Y51.8G85X26.75Y51.8
G05
T0
M30
